<?xml version="1.0" standalone="no"?>
<!DOCTYPE svg PUBLIC "-//W3C//DTD SVG 20010904//EN"
 "http://www.w3.org/TR/2001/REC-SVG-20010904/DTD/svg10.dtd">
<svg version="1.0" xmlns="http://www.w3.org/2000/svg"
 width="512.000000pt" height="512.000000pt" viewBox="0 0 512.000000 512.000000"
 preserveAspectRatio="xMidYMid meet">
<metadata>
Created by potrace 1.14, written by Peter Selinger 2001-2017
</metadata>
<g transform="translate(0.000000,512.000000) scale(0.100000,-0.100000)"
fill="#000000" stroke="none">
<path d="M574 5109 c-136 -23 -265 -91 -369 -194 -81 -82 -134 -167 -173 -280
l-27 -80 0 -1995 0 -1995 27 -80 c39 -112 92 -198 173 -280 82 -81 168 -134
280 -173 l80 -27 1995 0 1995 0 80 27 c112 39 198 92 280 173 81 82 134 168
173 280 l27 80 0 1995 0 1995 -27 80 c-39 112 -92 198 -173 280 -82 81 -168
134 -280 173 l-80 27 -1965 1 c-1081 1 -1988 -2 -2016 -7z m867 -1315 c37 -19
63 -74 54 -115 -9 -38 -59 -79 -97 -79 -88 0 -139 98 -87 164 36 46 80 56 130
30z m2676 -175 l-6 -162 27 26 c46 43 86 57 159 57 90 0 137 -26 172 -95 26
-49 26 -53 29 -307 l3 -258 -80 0 -81 0 0 225 c0 256 -6 288 -58 300 -38 8
-74 -10 -122 -60 l-35 -36 -5 -212 -5 -212 -77 -3 -78 -3 0 451 0 450 82 0 81
0 -6 -161z m-3252 -79 c27 -27 47 -51 44 -53 -2 -2 -69 -57 -149 -122 -80 -65
-149 -121 -153 -125 -5 -4 61 -65 146 -136 l155 -128 -47 -53 c-25 -29 -48
-53 -51 -53 -10 0 -424 355 -422 363 2 9 413 357 422 357 3 0 28 -22 55 -50z
m1231 -15 c12 -8 27 -28 34 -45 l13 -31 18 28 c31 47 60 63 116 63 41 0 58 -5
82 -25 51 -44 56 -74 56 -365 l0 -265 -67 -3 -67 -3 -3 255 c-3 224 -5 257
-20 272 -15 15 -19 15 -34 3 -9 -8 -28 -36 -40 -64 -23 -47 -24 -61 -24 -257
l0 -208 -65 0 -64 0 -3 255 c-3 223 -5 256 -20 271 -22 22 -41 8 -74 -58 -23
-46 -24 -55 -24 -258 l0 -211 -67 3 -68 3 -3 323 -2 322 60 0 c60 0 60 0 60
-29 0 -17 5 -33 10 -36 6 -3 10 -2 10 4 0 5 14 23 31 40 26 27 38 31 83 31 29
0 61 -6 72 -15z m860 -8 c90 -47 134 -129 142 -259 l5 -88 -214 -2 -214 -3 3
-30 c9 -80 83 -135 183 -135 52 0 139 12 182 26 15 5 17 -2 17 -60 0 -73 5
-69 -100 -86 -191 -30 -326 8 -394 111 -40 59 -60 150 -52 236 11 139 69 237
169 288 48 24 60 26 147 23 63 -3 106 -10 126 -21z m728 17 l46 -7 0 -67 0
-68 -47 14 c-73 23 -193 23 -226 1 -32 -21 -36 -56 -9 -81 11 -9 65 -32 121
-51 174 -58 205 -88 206 -196 0 -55 -4 -72 -27 -106 -57 -86 -206 -121 -401
-93 l-87 12 0 74 0 73 39 -14 c72 -25 193 -38 239 -26 68 19 87 72 39 106 -12
8 -64 29 -116 46 -160 53 -201 94 -201 199 0 85 50 147 143 176 45 14 204 18
281 8z m-2204 -264 l0 -260 95 0 95 0 0 -65 0 -65 -275 0 -275 0 0 65 0 65
100 0 100 0 0 200 0 200 -90 0 -90 0 0 60 0 60 170 0 170 0 0 -260z m1920
-1201 l0 -161 33 28 c47 40 89 54 158 54 84 0 138 -31 171 -97 22 -47 23 -56
23 -303 l0 -255 -77 -3 -78 -3 0 224 c0 133 -4 236 -11 255 -6 18 -22 35 -40
42 -41 17 -78 0 -134 -62 l-45 -50 0 -204 0 -204 -75 0 -75 0 0 450 0 450 75
0 75 0 0 -161z m-2000 11 l0 -100 125 0 125 0 0 -60 0 -60 -125 0 -125 0 0
-170 c0 -185 6 -212 52 -231 29 -12 144 -8 181 6 15 6 17 0 17 -58 l0 -66 -37
-8 c-21 -4 -83 -8 -138 -8 -88 0 -105 3 -143 25 -80 45 -86 66 -92 300 l-5
205 -87 3 -88 3 0 59 0 60 90 0 90 0 0 83 0 83 58 16 c107 29 102 33 102 -82z
m2910 -220 c115 -96 209 -177 209 -180 0 -4 -170 -149 -371 -315 l-60 -49 -48
54 -48 54 155 128 154 127 -155 129 -154 129 45 52 c25 29 49 51 54 49 5 -2
104 -82 219 -178z m-2069 107 c94 -47 139 -126 147 -259 l5 -88 -214 -2 -214
-3 3 -30 c4 -39 30 -83 65 -109 37 -27 155 -33 250 -13 l67 15 0 -63 c0 -73 5
-69 -110 -86 -270 -39 -416 53 -437 278 -15 158 52 298 170 358 47 24 61 26
142 23 60 -2 102 -9 126 -21z m792 5 c26 -11 27 -14 27 -82 0 -78 -1 -79 -70
-55 -66 23 -160 20 -201 -8 -72 -49 -102 -133 -79 -227 30 -124 149 -168 304
-114 21 8 40 14 43 14 2 0 3 -32 1 -72 l-3 -72 -45 -14 c-67 -21 -224 -21
-286 1 -69 24 -127 76 -161 145 -25 51 -28 68 -28 158 0 96 2 105 35 170 41
79 103 133 184 158 58 18 232 16 279 -2z m-2272 -440 c96 -107 -24 -262 -151
-197 -78 41 -80 176 -2 220 18 10 44 14 76 11 40 -3 55 -9 77 -34z"/>
<path d="M2735 3398 c-15 -12 -34 -36 -41 -54 -27 -64 -28 -64 116 -64 72 0
130 3 130 8 0 32 -26 85 -51 106 -40 34 -113 36 -154 4z"/>
<path d="M2025 1848 c-15 -12 -34 -36 -41 -54 -27 -64 -28 -64 116 -64 72 0
130 3 130 8 0 32 -26 85 -51 106 -40 34 -113 36 -154 4z"/>
</g>
</svg>
